<?xml version="1.0" encoding="utf-8"?>
<!-- Generator: Adobe Illustrator 27.5.0, SVG Export Plug-In . SVG Version: 6.00 Build 0)  -->
<svg version="1.1" xmlns="http://www.w3.org/2000/svg" xmlns:xlink="http://www.w3.org/1999/xlink" x="0px" y="0px"
	 viewBox="0 0 750 500" style="enable-background:new 0 0 750 500;" xml:space="preserve">
<g id="BACKGROUND">
</g>
<g id="OBJECTS">
	<g>
		<g>
			<path style="fill:#BBFFFF;" d="M209.336,436.18c-18.667,10.667-71.042-8.081-97.908-25.323
				c-45.166-28.987-74.015-98.382-64.274-154.14c9.608-54.996,55.393-88.415,115.778-88.415c32.775,0,55.83,24.696,78.496,47.363
				c9.334-66,32-127.333,98-155.333s141.333-4.667,184.667,51.333c35.333,46.667,48,109.333,37.333,166
				c-12.667,69.333-60,127.333-124.667,154c-62,24.666-128.667,20-192.667,6c-6-1.334-12.667-3.334-18.667-4.667"/>
		</g>
		<g>
			<path style="fill:#FCA995;" d="M223.228,88.499c-0.551,27.872-23.59,50.016-51.458,49.465
				c-27.871-0.551-50.015-23.587-49.465-51.459c0.551-27.868,23.588-50.014,51.459-49.463
				C201.632,37.592,223.779,60.631,223.228,88.499z"/>
			
				<text transform="matrix(0.9998 0.0198 -0.0198 0.9998 144.2806 112.4219)" style="fill:#FFFEFF; font-family:'Metropolis-Bold'; font-size:65.5861px;">%</text>
		</g>
		<g>
			<path style="fill:#FF7769;" d="M270.888,84.202c-0.193,9.771-8.269,17.533-18.039,17.34c-9.771-0.193-17.533-8.269-17.34-18.039
				c0.193-9.769,8.269-17.532,18.04-17.339C263.318,66.356,271.081,74.432,270.888,84.202z"/>
			
				<text transform="matrix(0.9998 0.0198 -0.0198 0.9998 246.3481 91.6376)" style="fill:#FFFEFF; font-family:'Metropolis-Bold'; font-size:22.9913px;">+</text>
		</g>
		<g>
			<g>
				<path style="fill:#FFC6B6;" d="M535.774,102.451c1.263,2.443,0.297,5.475-2.146,6.738l-121.298,62.695
					c-2.442,1.263-5.475,0.297-6.737-2.146l-35.284-68.262c-1.263-2.443-0.297-5.475,2.146-6.738l121.298-62.695
					c2.442-1.263,5.475-0.297,6.737,2.146L535.774,102.451z"/>
			</g>
			<path style="fill:#FF7769;" d="M487.204,55.409c2.144,4.147,0.517,9.247-3.629,11.39c-4.146,2.143-9.246,0.52-11.39-3.627
				c-2.143-4.149-0.52-9.247,3.628-11.39C479.96,49.638,485.06,51.262,487.204,55.409z"/>
			<path style="fill:#FF8C00;" d="M497.464,50.105c2.143,4.147,0.52,9.247-3.627,11.389c-4.147,2.144-9.246,0.52-11.389-3.627
				c-2.145-4.146-0.519-9.246,3.627-11.39C490.223,44.335,495.321,45.958,497.464,50.105z"/>
			
				<rect x="398.113" y="132.096" transform="matrix(0.8884 -0.4592 0.4592 0.8884 -16.139 206.8338)" style="fill:#FFFEFF;" width="38.265" height="9.015"/>
			
				<rect x="398.171" y="124.729" transform="matrix(0.8883 -0.4592 0.4592 0.8883 -7.5962 223.4919)" style="fill:#FFFEFF;" width="115.18" height="5.273"/>
			
				<rect x="406.604" y="150.398" transform="matrix(0.8883 -0.4592 0.4592 0.8883 -22.7341 212.5717)" style="fill:#FFFEFF;" width="38.265" height="5.271"/>
			
				<rect x="433.586" y="109.975" transform="matrix(0.8883 -0.4592 0.4592 0.8883 -1.2017 224.0235)" style="fill:#FFFEFF;" width="52.915" height="9.016"/>
			<g>
				<path style="fill:#FF8C00;" d="M403.8,96.536c-1.263-2.443-4.295-3.409-6.737-2.146L384,101.141
					c-2.442,1.263-3.408,4.294-2.146,6.737l0.842,1.628c1.264,2.443,4.296,3.408,6.738,2.146l13.06-6.75
					c2.442-1.263,3.408-4.295,2.146-6.738L403.8,96.536z"/>
			</g>
			<polygon style="fill:#FEFCE4;" points="407.89,174.18 519.954,71.466 538.07,106.893 			"/>
		</g>
		<g>
			<path style="fill:#FFFEFF;stroke:#1DC9D6;stroke-width:2;stroke-miterlimit:10;" d="M411.784,437.545
				c0,7.273-5.949,13.223-13.223,13.223H207.566c-7.272,0-13.223-5.95-13.223-13.223V129.011c0-7.272,5.95-13.223,13.223-13.223
				h190.995c7.273,0,13.223,5.951,13.223,13.223V437.545z"/>
			<rect x="195.835" y="148.624" style="fill:#EFE5D0;" width="214.458" height="83.14"/>
			<g>
				<path style="fill:#1DC9D6;" d="M398.561,115.788H207.566c-7.272,0-13.223,5.951-13.223,13.223v8.521h217.44v-8.521
					C411.784,121.738,405.835,115.788,398.561,115.788z"/>
			</g>
			<path style="fill:#FFFEFF;" d="M380.861,126.659c0,2.069-1.676,3.747-3.746,3.747c-2.069,0-3.746-1.678-3.746-3.747
				c0-2.069,1.677-3.746,3.746-3.746C379.185,122.913,380.861,124.59,380.861,126.659z"/>
			<path style="fill:#FFFEFF;" d="M391.44,126.659c0,2.069-1.678,3.747-3.747,3.747c-2.069,0-3.746-1.678-3.746-3.747
				c0-2.069,1.677-3.746,3.746-3.746C389.763,122.913,391.44,124.59,391.44,126.659z"/>
			<path style="fill:#FFFEFF;" d="M402.018,126.659c0,2.069-1.676,3.747-3.745,3.747c-2.07,0-3.747-1.678-3.747-3.747
				c0-2.069,1.677-3.746,3.747-3.746C400.342,122.913,402.018,124.59,402.018,126.659z"/>
			<g>
				<path style="fill:#FFFEFF;" d="M354.633,123.081c0-1.1-0.9-2-2-2h-99.137c-1.1,0-2,0.9-2,2v7.157c0,1.1,0.9,2,2,2h99.137
					c1.1,0,2-0.9,2-2V123.081z"/>
			</g>
			<g>
				
					<line style="fill:none;stroke:#FFFEFF;stroke-width:2;stroke-linecap:round;stroke-miterlimit:10;" x1="205.22" y1="122.913" x2="218.884" y2="122.913"/>
				
					<line style="fill:none;stroke:#FFFEFF;stroke-width:2;stroke-linecap:round;stroke-miterlimit:10;" x1="205.22" y1="126.659" x2="218.884" y2="126.659"/>
				
					<line style="fill:none;stroke:#FFFEFF;stroke-width:2;stroke-linecap:round;stroke-miterlimit:10;" x1="205.22" y1="130.406" x2="218.884" y2="130.406"/>
			</g>
			<g>
				<rect x="215.169" y="192.024" style="fill:#FCA995;" width="62.738" height="26.739"/>
				<polygon style="fill:#FFC6B6;" points="277.907,218.763 293.775,211.417 293.775,184.678 277.907,192.024 				"/>
				<polygon style="fill:#FFC6B6;" points="293.775,184.678 231.037,184.678 215.169,192.024 277.907,192.024 				"/>
				<polygon style="opacity:0.3;fill:#FFFEFF;" points="277.907,192.024 293.775,184.678 215.169,192.024 				"/>
				<rect x="245.73" y="213.768" style="fill:#FFFEFF;" width="30.194" height="3.085"/>
				<rect x="260.13" y="209.8" style="fill:#FFFEFF;" width="15.794" height="3.085"/>
			</g>
			
				<line style="fill:none;stroke:#0A5265;stroke-width:5;stroke-linecap:square;stroke-linejoin:bevel;stroke-miterlimit:10;" x1="212.193" y1="158.398" x2="296.75" y2="158.398"/>
			
				<line style="fill:none;stroke:#0A5265;stroke-width:5;stroke-linecap:square;stroke-linejoin:bevel;stroke-miterlimit:10;" x1="212.193" y1="164.863" x2="277.063" y2="164.863"/>
			
				<line style="fill:none;stroke:#0A5265;stroke-width:5;stroke-linecap:square;stroke-linejoin:bevel;stroke-miterlimit:10;" x1="317.461" y1="158.398" x2="402.018" y2="158.398"/>
			
				<line style="fill:none;stroke:#0A5265;stroke-width:5;stroke-linecap:square;stroke-linejoin:bevel;stroke-miterlimit:10;" x1="317.461" y1="164.863" x2="351.698" y2="164.863"/>
			<g>
				
					<ellipse transform="matrix(0.7071 -0.7071 0.7071 0.7071 -68.5437 211.4243)" style="fill:#0A5265;" cx="220.94" cy="188.452" rx="10.285" ry="10.285"/>
				
					<text transform="matrix(1 0 0 1 215.2527 193.6427)" style="fill:#FFFEFF; font-family:'Metropolis-Bold'; font-size:13.3646px;">%</text>
			</g>
			<g>
				<rect x="215.169" y="273.743" style="fill:#1DC9D6;" width="62.738" height="47.088"/>
				<polygon style="fill:#BBFFFF;" points="277.907,320.831 293.775,313.484 293.775,266.397 277.907,273.743 				"/>
				<polygon style="fill:#BBFFFF;" points="293.775,266.397 231.037,266.397 215.169,273.743 277.907,273.743 				"/>
				<polygon style="opacity:0.3;fill:#FFFEFF;" points="277.907,273.743 293.775,266.397 215.169,273.743 				"/>
				<rect x="255.282" y="277.783" style="fill:#FFFEFF;" width="18.917" height="2.842"/>
				<rect x="245.73" y="281.324" style="fill:#FFFEFF;" width="28.468" height="2.842"/>
				<path style="fill:#FFFEFF;" d="M227.038,313.043c0,2.07-1.677,3.747-3.747,3.747c-2.069,0-3.746-1.677-3.746-3.747
					c0-2.069,1.677-3.745,3.746-3.745C225.36,309.298,227.038,310.974,227.038,313.043z"/>
			</g>
			
				<line style="fill:none;stroke:#0A5265;stroke-width:5;stroke-linecap:square;stroke-linejoin:bevel;stroke-miterlimit:10;" x1="212.193" y1="241.702" x2="296.75" y2="241.702"/>
			
				<line style="fill:none;stroke:#0A5265;stroke-width:5;stroke-linecap:square;stroke-linejoin:bevel;stroke-miterlimit:10;" x1="212.193" y1="248.166" x2="239.599" y2="248.166"/>
			
				<line style="fill:none;stroke:#0A5265;stroke-width:5;stroke-linecap:square;stroke-linejoin:bevel;stroke-miterlimit:10;" x1="212.193" y1="339.435" x2="296.75" y2="339.435"/>
			
				<line style="fill:none;stroke:#0A5265;stroke-width:5;stroke-linecap:square;stroke-linejoin:bevel;stroke-miterlimit:10;" x1="212.193" y1="345.9" x2="285.842" y2="345.9"/>
			<g>
				<path style="fill:#0A5265;" d="M334.956,369.085c0,5.681-4.604,10.286-10.284,10.286c-5.681,0-10.285-4.605-10.285-10.286
					c0-5.68,4.604-10.284,10.285-10.284C330.352,358.801,334.956,363.405,334.956,369.085z"/>
				
					<text transform="matrix(1 0 0 1 318.9841 374.2761)" style="fill:#FFFEFF; font-family:'Metropolis-Bold'; font-size:13.3646px;">%</text>
			</g>
			<g>
				<rect x="215.169" y="366.193" style="fill:#FFA77B;" width="24.43" height="47.088"/>
				<polygon style="fill:#FFC48A;" points="239.599,413.281 255.466,405.935 255.466,358.848 239.599,366.193 				"/>
				<polygon style="fill:#FFC48A;" points="255.466,358.848 231.037,358.848 215.169,366.193 239.599,366.193 				"/>
				<polygon style="opacity:0.3;fill:#FFFEFF;" points="239.599,366.193 255.466,358.848 215.169,366.193 				"/>
				<rect x="227.384" y="369.205" style="fill:#FFFEFF;" width="9.35" height="1.983"/>
				<rect x="231.225" y="372.731" style="fill:#FFFEFF;" width="5.51" height="1.983"/>
			</g>
			<g>
				<rect x="247.533" y="394.548" style="fill:#FFA77B;" width="30.374" height="18.733"/>
				<polygon style="fill:#FFC48A;" points="277.907,413.281 293.775,405.935 293.775,387.202 277.907,394.548 				"/>
				<polygon style="fill:#FFC48A;" points="293.775,387.202 263.4,387.202 247.533,394.548 277.907,394.548 				"/>
				<polygon style="opacity:0.3;fill:#FFFEFF;" points="277.907,394.548 293.775,387.202 247.533,394.548 				"/>
				<rect x="263.62" y="408.873" style="fill:#FFFEFF;" width="11.9" height="1.983"/>
			</g>
			<g>
				<rect x="328.957" y="272.675" style="fill:#FCA995;" width="45.121" height="49.399"/>
				<polygon style="fill:#FFC6B6;" points="374.079,322.074 385.489,316.79 385.489,267.393 374.079,272.675 				"/>
				<polygon style="fill:#FFC6B6;" points="385.489,267.393 340.369,267.393 328.957,272.675 374.079,272.675 				"/>
				<polygon style="opacity:0.3;fill:#FFFEFF;" points="374.079,272.675 385.489,267.393 328.957,272.675 				"/>
				<rect x="368.697" y="300.702" style="fill:#FFFEFF;" width="1.807" height="18.292"/>
				<rect x="366.014" y="307.976" style="fill:#FFFEFF;" width="1.807" height="11.019"/>
				<rect x="331.855" y="313.484" style="fill:#FFFEFF;" width="1.807" height="5.51"/>
			</g>
			
				<line style="fill:none;stroke:#0A5265;stroke-width:5;stroke-linecap:square;stroke-linejoin:bevel;stroke-miterlimit:10;" x1="314.945" y1="241.702" x2="399.503" y2="241.702"/>
			
				<line style="fill:none;stroke:#0A5265;stroke-width:5;stroke-linecap:square;stroke-linejoin:bevel;stroke-miterlimit:10;" x1="314.945" y1="248.166" x2="376.08" y2="248.166"/>
			<g>
				<path style="fill:#0A5265;" d="M341.028,271.459l2.37-6.115c0.389-1.004-0.134-2.088-1.162-2.406l-6.265-1.946
					c-1.029-0.319-2.664-0.197-3.634,0.27l-16.845,8.138c-0.971,0.468-1.381,1.645-0.912,2.616l4.515,9.348
					c0.469,0.971,1.646,1.381,2.617,0.912l16.844-8.137C339.528,273.668,340.639,272.463,341.028,271.459z M338.534,266.21
					c-0.376-0.779-0.049-1.718,0.73-2.095c0.779-0.375,1.716-0.048,2.092,0.732c0.376,0.779,0.049,1.715-0.729,2.092
					C339.848,267.315,338.91,266.988,338.534,266.21z"/>
				
					<text transform="matrix(0.9004 -0.435 0.435 0.9004 320.1582 277.9715)" style="fill:#FFFEFF; font-family:'Metropolis-Bold'; font-size:7.0171px;">SALE</text>
			</g>
			<g>
				<rect x="328.957" y="394.037" style="fill:#1DC9D6;" width="45.121" height="18.804"/>
				<polygon style="fill:#BBFFFF;" points="374.079,412.841 385.489,407.557 385.489,388.754 374.079,394.037 				"/>
				<polygon style="fill:#BBFFFF;" points="385.489,388.754 340.369,388.754 328.957,394.037 374.079,394.037 				"/>
				<polygon style="opacity:0.3;fill:#FFFEFF;" points="374.079,394.037 385.489,388.754 328.957,394.037 				"/>
				<rect x="333.662" y="409.099" style="fill:#FFFEFF;" width="34.159" height="1.029"/>
				<rect x="355.518" y="407.336" style="fill:#FFFEFF;" width="12.303" height="1.029"/>
			</g>
			<g>
				<rect x="353.314" y="373.979" style="fill:#1DC9D6;" width="26.714" height="18.804"/>
				<polygon style="fill:#BBFFFF;" points="380.028,392.783 391.44,387.5 391.44,368.696 380.028,373.979 				"/>
				<polygon style="fill:#BBFFFF;" points="391.44,368.696 364.726,368.696 353.314,373.979 380.028,373.979 				"/>
				<polygon style="opacity:0.3;fill:#FFFEFF;" points="380.028,373.979 391.44,368.696 353.314,373.979 				"/>
				<rect x="366.014" y="388.754" style="fill:#FFFEFF;" width="12.645" height="1.612"/>
			</g>
			
				<line style="fill:none;stroke:#0A5265;stroke-width:5;stroke-linecap:square;stroke-linejoin:bevel;stroke-miterlimit:10;" x1="314.945" y1="339.363" x2="399.503" y2="339.363"/>
			
				<line style="fill:none;stroke:#0A5265;stroke-width:5;stroke-linecap:square;stroke-linejoin:bevel;stroke-miterlimit:10;" x1="314.945" y1="345.828" x2="355.518" y2="345.828"/>
			<g>
				<path style="fill:none;" d="M411.784,129.011c0-7.272-5.949-13.223-13.223-13.223H207.566c-7.272,0-13.223,5.951-13.223,13.223
					v294.502h217.44V129.011z"/>
				<path style="fill:#1DC9D6;" d="M411.784,437.545v-14.032h-217.44v14.032c0,7.273,5.95,13.223,13.223,13.223h190.995
					C405.835,450.768,411.784,444.817,411.784,437.545z"/>
			</g>
		</g>
		<g>
			<path style="fill:#1F98D7;" d="M486.554,423.75c0,0,2.545,11.609,1.595,14.43c-0.95,2.82-30.151,4.68-45.426,1.25
				c-7.524-1.43,4.226-12.107,13.976-16.644"/>
			<path style="fill:#1F98D7;" d="M572.452,400.298c0,0,8.812,7.975,9.676,10.823c0.863,2.848-21.833,21.315-36.261,27.391
				c-6.956,3.204-3.589-12.311,1.717-21.665"/>
			<g>
				<path style="fill:#0C7AAA;" d="M502.454,210.708c-26.843,12.063-68.752,9.636-89.788-11.398
					c-4.655-4.654,2.295-15.247,7.167-11.792c26.504,18.795,51.355,19.294,81.457,8.436"/>
			</g>
			<g>
				<path style="fill:#FFC48A;" d="M509.927,199.365c-3.082-2.047-2.988-4.037-3.421-9.668c-0.324-4.208,0.757-6.415,0.179-8.985
					c-1.804-5.653-9.495-5.972-12.77,0.109c-1.572,2.921,0.502,14.324,5.234,11.161c0.162,1.446,0.035,2.924-0.094,4.401
					c-0.158,3.823-3.916,4.243-5.329,7.328"/>
			</g>
			<g>
				<path style="fill:#1F98D7;" d="M528.2,267.018c-1.31-12.219-2.183-24.438-3.055-37.092c-0.873-14.4-8.291-41.456-27.929-32.728
					c-22.255,10.037-22.69,34.91-28.801,54.983v5.455l24.002,7.603l15.491,1.779H528.2z"/>
			</g>
			<path style="fill:#FF8C00;" d="M468.416,252.181c-1.745,8.729-25.31,160.298-26.182,168.297c-0.873,8,49.746,6.837,49.31,0
				c-0.438-6.837-7.419-74.912-7.419-82.767s10.291-45.387,11.164-48.006c0.872-2.618,10.018,44.21,11.764,51.629
				c1.746,7.419,22.819,68.184,28.492,78.439c5.672,10.254,44.074-17.1,40.146-21.75c-3.927-4.65-35.71-64.727-38.766-68.435
				c-3.054-3.71-4.967-71.153-10.556-78.863C526.371,250.726,470.598,267.89,468.416,252.181z"/>
			<g>
				<path style="fill:#FF7769;" d="M500.325,184.167c0.455-1.094,1.509-1.503,2.055-1.025c0.645,0.566,0.71,2.421-0.908,3.1
					c3.452,0.676,4.122,3.162,6.088,5.68c1.856,2.866,5.061,4.044,8.579,4.091c6.146-0.028,13.248-7.189,9.462-13.571
					c-2.123-3.275-5.833-3.081-8.41-0.598c2.528-4.893,4.549-10.387-0.129-14.914c-4.412-4.118-10.699-1.439-9.779,4.824
					c-3.643-7.058-16.802,2.417-13.232,8.825c1.084-2.097,4.594-3.359,6.186-0.902C501.032,180.904,499.675,184.239,500.325,184.167
					"/>
			</g>
			<path style="fill:#D8CAB2;" d="M471.617,239.732c0,0,21.147-5.778,34.61-22.848c0,0-11.33,21.571-36.243,29.634L471.617,239.732z
				"/>
			<polygon style="fill:#D8CAB2;" points="495.29,289.705 490.235,277.828 484.554,333.598 487.518,319.378 			"/>
			<path style="fill:none;stroke:#FEFCE4;stroke-width:0.5;stroke-miterlimit:10;" d="M467.23,259.112
				c4.896,7.905,22.35,8.909,60.97-3.374"/>
			<polyline style="fill:none;stroke:#FEFCE4;stroke-width:0.5;stroke-miterlimit:10;" points="507.316,261.607 524.709,274.872 
				524.709,277.828 			"/>
			<polyline style="fill:none;stroke:#FEFCE4;stroke-width:0.5;stroke-miterlimit:10;" points="489.922,265.238 490.235,277.828 
				492.1,282.208 480.198,337.274 488.106,423.36 			"/>
			<g>
				
					<rect x="365.426" y="186.348" transform="matrix(0.2463 -0.9692 0.9692 0.2463 87.3759 531.7649)" style="fill:#1DC9D6;" width="40.293" height="46.716"/>
				<polygon style="fill:#BBFFFF;" points="403.25,234.984 420.516,231.758 430.44,192.705 413.173,195.933 				"/>
				<polygon style="fill:#BBFFFF;" points="430.44,192.705 385.163,181.201 367.895,184.428 413.173,195.933 				"/>
				<polygon style="opacity:0.3;fill:#FFFEFF;" points="413.173,195.933 430.44,192.705 367.895,184.428 				"/>
				
					<rect x="404.294" y="197.156" transform="matrix(0.2462 -0.9692 0.9692 0.2462 113.103 544.9062)" style="fill:#FFFEFF;" width="5.165" height="5.164"/>
				
					<rect x="395.214" y="218.219" transform="matrix(0.2463 -0.9692 0.9692 0.2463 80.6205 553.5387)" style="fill:#FFFEFF;" width="1.992" height="13.43"/>
				
					<rect x="397.185" y="225.024" transform="matrix(0.2463 -0.9692 0.9692 0.2463 78.3142 558.4228)" style="fill:#FFFEFF;" width="1.992" height="7.674"/>
			</g>
			<g>
				<path style="fill:#FFC48A;" d="M414.058,223.927c-1.559-0.801-3.285-0.508-4.496-2.3c-0.499-0.772-0.657-3.736-1.507-4.118
					c-1.202-0.593-1.253,2.724-1.28,3.782c-8.543-5.984-8.697,1.847-7.689,5.192c0.542,2.114,4.387,3.014,6.327,2.967
					c2.117,0.057,3.284,0.508,5.301,1.343c1.522,0.66,3.005,1.181,4.805,1.168"/>
			</g>
			<g>
				<path style="fill:#1F98D7;" d="M510.028,211.55c-20.078,31.427-62.834,39.557-97.748,22.401
					c-2.96-1.455,0.143-15.958,5.235-13.964c40.147,15.71,71.276-1.745,85.24-22.11"/>
			</g>
			<g>
				<path style="fill:#FFC48A;" d="M416.052,189.015c2.29-2.292-3.492-3.273-4.691-3.164c-1.201,0-5.447,0.404-4.327,2.146
					c0.654,1.018,4.196,0.35,5.309,0.364C413.54,188.375,414.706,188.761,416.052,189.015"/>
			</g>
			<g>
				<path style="fill:#0C7AAA;" d="M460.124,235.097c-7.766,0.622-13.86,3.658-13.609,6.781c0.023,0.283,0.113,0.553,0.234,0.816
					c9.523,0.357,18.921-0.944,27.676-3.852C473.243,236.174,467.222,234.527,460.124,235.097z"/>
			</g>
			<g>
				<path style="fill:none;" d="M501.472,186.241c0,0,4.685-2.616,8.422-0.184c6.063,3.945,13.87,6.365,16.684-0.907
					c-0.136-0.904-0.445-1.813-0.977-2.708c-2.123-3.275-5.833-3.081-8.41-0.598c2.528-4.893,4.549-10.387-0.129-14.914
					c-4.412-4.118-10.699-1.439-9.779,4.824c-3.643-7.058-16.802,2.417-13.232,8.825c1.084-2.097,4.594-3.359,6.186-0.902
					c0.796,1.228-0.561,4.563,0.089,4.49c0.455-1.094,1.509-1.503,2.055-1.025C503.024,183.707,503.09,185.563,501.472,186.241z"/>
				<path style="fill:#D8CAB2;" d="M509.894,186.057c-3.736-2.432-8.422,0.184-8.422,0.184c3.452,0.676,4.122,3.162,6.088,5.68
					c1.856,2.866,5.061,4.044,8.579,4.091c5.283-0.024,11.269-5.321,10.438-10.863C523.764,192.422,515.956,190.002,509.894,186.057
					z"/>
			</g>
		</g>
		<g>
			<polyline style="fill:none;stroke:#FFFEFF;stroke-linecap:round;stroke-linejoin:round;stroke-miterlimit:10;" points="
				315.06,441.64 303.567,441.64 297.386,431.159 316.958,431.159 314.273,445.81 			"/>
			
				<line style="fill:none;stroke:#FFFEFF;stroke-linecap:round;stroke-linejoin:round;stroke-miterlimit:10;" x1="316.519" y1="433.393" x2="303.566" y2="433.393"/>
			
				<line style="fill:none;stroke:#FFFEFF;stroke-linecap:round;stroke-linejoin:round;stroke-miterlimit:10;" x1="315.928" y1="436.18" x2="310.043" y2="436.18"/>
			
				<line style="fill:none;stroke:#FFFEFF;stroke-linecap:round;stroke-linejoin:round;stroke-miterlimit:10;" x1="316.958" y1="431.159" x2="319.328" y2="429.433"/>
			<path style="fill:#FFFEFF;" d="M315.852,445.519c0,0.872-0.707,1.58-1.579,1.58c-0.872,0-1.579-0.708-1.579-1.58
				c0-0.871,0.708-1.578,1.579-1.578C315.144,443.94,315.852,444.647,315.852,445.519z"/>
			<path style="fill:#FFFEFF;" d="M306.787,445.487c0,0.89-0.721,1.611-1.61,1.611c-0.889,0-1.61-0.722-1.61-1.611
				c0-0.889,0.722-1.609,1.61-1.609C306.066,443.878,306.787,444.599,306.787,445.487z"/>
			
				<line style="fill:none;stroke:#FFFEFF;stroke-linecap:round;stroke-linejoin:round;stroke-miterlimit:10;" x1="313.456" y1="445.81" x2="304.854" y2="445.81"/>
		</g>
		<g>
			<g>
				<path style="fill:#633500;" d="M239.365,197.833c1-1,1.167-2.333,2.167-3.333c1.833-2.167,6-1.833,8.5-3
					c1.5-0.833,6.667-3.482,8.667-3.149c3.667,0.5-5.667,5.316-6.5,6.482c-1.167,1.5-2.5,3.5-3.167,5
					c-1.833-0.666-7.5-3-9.167-1.666"/>
			</g>
			<path style="fill:#FF7769;" d="M125.925,424.921c0,0-3.168,11.454-2.371,14.322c0.796,2.867,29.855,6.3,45.292,3.699
				c7.591-1.022-3.565-12.317-13.057-17.373"/>
			<path style="fill:#FF7769;" d="M58.848,419.339c0,0-4.217,11.11-3.69,14.04c0.526,2.93,29.141,9.044,44.752,7.887
				c7.653-0.311-2.406-12.594-11.388-18.51"/>
			<path style="fill:#0A5265;" d="M171.707,251.017c-4.983,9.498,23.491,65.484,22.491,81.483c-1,16-22.5,90.695-23,95.599
				c-0.5,4.901-48.5,4.183-47.5-5.958c1-10.141,35.02-75.141,35.26-84.641c0.24-9.5-17.76-55.43-17.76-55.43
				c-28.999,143.257-31.203,116.806-35.5,140.775c-2,11.154-52.5,1.551-49.5-9.647c3-11.198,37-77.698,38-85.198
				s8.906-81.576,20.953-93.038C127.198,223.5,167.191,227.516,171.707,251.017z"/>
			<g>
				<path style="fill:#FF8C00;" d="M112.006,239.417c3.5-11.982,10.508-26.493,19.5-37.5c15.75-19.279,31.371-21.262,41.5-22
					c32.03-2.335,2.875,62.914-0.475,69.749C163.769,267.547,127.006,228.417,112.006,239.417z"/>
			</g>
			<g>
				<path style="fill:#633500;" d="M166.68,180.582c2.666-4.333,3.685-2.837,3.018-9.17c-0.333-5-3-10.667,1-15
					c4.333-4.334,11.333-1.667,14,3.333s0.333,17.333-3.25,15.249c0,3.333,0.167,3.256,0.5,5.589c0.333,3-1.78,5.94-5.684,5.917
					C172.915,186.48,166.68,183.582,166.68,180.582"/>
			</g>
			<g>
				<path style="fill:#633500;" d="M242.24,194.938c1.167-1.667,1.157-3.503,2.157-5.336c0.334-0.667,1.5-2.5,2.334-2.5
					c1.833,0.166-0.324,3.17-0.158,4.17c0,1,0.333,1.321,1.833,0.988"/>
			</g>
			<g>
				<path style="fill:#FF8C00;" d="M186.022,186.5c3.843,5.524,13.805,26.466,19.843,33.333
					c11.374,12.935,30.02-3.125,32.303-20.253c0.666-5,14.208-4.015,14,2.667c-0.574,18.447-26.803,46.747-48.97,38.468
					c-13.833-5.167-23.716-22.901-27.833-38.994"/>
			</g>
			<g>
				<path style="fill:#0A5265;" d="M175.115,165.333c-1.057-1.125-2.063-0.48-2.333,0.5c-0.333,1.209,1.042,3.084,1.792,3.25
					c-2.917,0.083-4.823,5.773-10.375,2.667c-4.117-2.303-5.5-9.25-4.5-13.75c2.25-9,14.5-14.25,22.25-8.5
					c4.25,2.75,6.322,7.836,3.572,12.586C182.532,151.917,172.115,159.542,175.115,165.333"/>
			</g>
			<g>
				<path style="fill:#633500;" d="M113.573,257.875c1.75,2.125,5,2.375,6.25,4.75c0.25,0.625,0.375,1.5,0.5,2.125l-8.851,11.859
					c0,0,0.601-3.434-3.024-6.959"/>
			</g>
			<g>
				<path style="fill:#FF8C00;" d="M141.198,206.25c-8.25,1.75-15.494,4.762-23,8.75c-16,8.5-24.42,24.757-5,40.75
					c4.25,3.5-1.763,16.77-5.75,14.5c-21.126-12.026-26.5-34.75-16.162-54.537c12.156-23.267,51.686-32.608,74.936-35.06"/>
			</g>
			<polyline style="fill:none;stroke:#FEFCE4;stroke-width:0.5;stroke-linecap:round;stroke-miterlimit:10;" points="
				110.448,278.004 125.147,258 129.698,258 			"/>
			<path style="fill:#D8CAB2;" d="M141.198,282.07l2.049-11.561c0,0,22.201,59.405,15.71,66.99
				C158.573,327.875,144.365,289.808,141.198,282.07z"/>
			<path style="fill:none;stroke:#FEFCE4;stroke-width:0.5;stroke-miterlimit:10;" d="M123.566,435.985
				c0,0,22.462,7.188,47.12,2.602"/>
			<path style="fill:none;stroke:#FEFCE4;stroke-width:0.5;stroke-miterlimit:10;" d="M55.667,429.285
				c0,0,19.462,9.662,46.497,7.855"/>
			<path style="fill:#D8CAB2;" d="M124.781,211.343c0,0,12.584-5.677,24.251-8.177c0,0-26.911,10.068-31.46,21.534L124.781,211.343z
				"/>
			<path style="fill:#D8CAB2;" d="M183.765,222.315l4.118-16.921c0,0-1.571,19.53,2.945,26.568L183.765,222.315z"/>
		</g>
		<g>
			<g>
				<rect x="576.879" y="355.754" style="fill:#FCA995;" width="55.957" height="61.262"/>
				<rect x="632.836" y="355.754" style="fill:#FFC6B6;" width="14.151" height="61.261"/>
				<rect x="626.161" y="390.512" style="fill:#FFFEFF;" width="2.242" height="22.685"/>
				<rect x="622.833" y="399.531" style="fill:#FFFEFF;" width="2.242" height="13.665"/>
			</g>
			<g>
				<g>
					<rect x="596.747" y="294.492" style="fill:#1DC9D6;" width="76.816" height="61.262"/>
					<rect x="673.563" y="294.493" style="fill:#BBFFFF;" width="19.427" height="61.261"/>
				</g>
				<rect x="644.989" y="299.709" style="fill:#FFFEFF;" width="23.25" height="3.75"/>
				<rect x="626.161" y="305.842" style="fill:#FFFEFF;" width="42.078" height="3.75"/>
			</g>
			<g>
				<g>
					<rect x="584.715" y="217.666" style="fill:#FFA77B;" width="48.146" height="76.827"/>
					<rect x="632.86" y="217.667" style="fill:#FFC48A;" width="19.427" height="76.827"/>
				</g>
				<rect x="621.516" y="239.382" style="fill:#FFFEFF;" width="9.29" height="3.75"/>
				<rect x="617.398" y="244.581" style="fill:#FFFEFF;" width="13.407" height="3.75"/>
				<rect x="607.167" y="285.082" style="fill:#FFFEFF;" width="23.639" height="3.75"/>
			</g>
			<g>
				<g>
					<rect x="637.364" y="249.112" style="fill:#FCA995;" width="48.146" height="45.381"/>
					<rect x="685.51" y="249.113" style="fill:#FFC6B6;" width="19.427" height="45.38"/>
				</g>
				<rect x="642.199" y="253.126" style="fill:#FFFEFF;" width="23.639" height="3.75"/>
			</g>
			<g>
				<g>
					<path style="fill:none;stroke:#0A5265;stroke-width:3;stroke-miterlimit:10;" d="M668.709,413.859
						c-1.074,2.532-4.203,4.603-6.953,4.603h-108c-2.75,0-5.312-2.228-5.691-4.952l-12.117-86.748
						c-0.38-2.724,1.559-4.952,4.309-4.952h162.5c2.75,0,4.121,2.071,3.047,4.604L668.709,413.859z"/>
				</g>
				<g>
					<path style="fill:none;stroke:#0A5265;stroke-width:3;stroke-linecap:round;stroke-linejoin:round;stroke-miterlimit:10;" d="
						M660.922,438.699h-105.5c-2.75,0-5.298-2.23-5.662-4.956l-16.176-121.07c-0.364-2.726-2.912-4.956-5.662-4.956h-11.525"/>
				</g>
				<g>
					
						<path style="fill:#1DC9D6;stroke:#0A5265;stroke-width:3;stroke-linecap:round;stroke-linejoin:round;stroke-miterlimit:10;" d="
						M582.375,438.698c0,6.325-5.127,11.453-11.452,11.453c-6.325,0-11.452-5.128-11.452-11.453c0-6.325,5.127-11.452,11.452-11.452
						C577.248,427.246,582.375,432.373,582.375,438.698z"/>
					<circle style="fill:#0A5265;" cx="570.923" cy="438.698" r="3"/>
				</g>
				<g>
					
						<path style="fill:#1DC9D6;stroke:#0A5265;stroke-width:3;stroke-linecap:round;stroke-linejoin:round;stroke-miterlimit:10;" d="
						M672.374,438.698c0,6.325-5.127,11.453-11.452,11.453s-11.452-5.128-11.452-11.453c0-6.325,5.127-11.452,11.452-11.452
						S672.374,432.373,672.374,438.698z"/>
					<circle style="fill:#0A5265;" cx="660.922" cy="438.698" r="3"/>
				</g>
				
					<line style="fill:none;stroke:#0A5265;stroke-width:3;stroke-linecap:round;stroke-linejoin:round;stroke-miterlimit:10;" x1="546.676" y1="398.582" x2="675.19" y2="398.582"/>
				
					<line style="fill:none;stroke:#0A5265;stroke-width:3;stroke-linecap:round;stroke-linejoin:round;stroke-miterlimit:10;" x1="543.833" y1="379.999" x2="683.072" y2="379.999"/>
				
					<line style="fill:none;stroke:#0A5265;stroke-width:3;stroke-linecap:round;stroke-linejoin:round;stroke-miterlimit:10;" x1="540.585" y1="361.499" x2="689.422" y2="361.499"/>
				
					<line style="fill:none;stroke:#0A5265;stroke-width:3;stroke-linecap:round;stroke-linejoin:round;stroke-miterlimit:10;" x1="537.449" y1="341.602" x2="698.589" y2="341.602"/>
				
					<line style="fill:none;stroke:#0A5265;stroke-width:3;stroke-linecap:round;stroke-linejoin:round;stroke-miterlimit:10;" x1="663.922" y1="321.81" x2="646.589" y2="418.463"/>
				
					<line style="fill:none;stroke:#0A5265;stroke-width:3;stroke-linecap:round;stroke-linejoin:round;stroke-miterlimit:10;" x1="570.923" y1="321.81" x2="580.923" y2="418.463"/>
				
					<line style="fill:none;stroke:#0A5265;stroke-width:3;stroke-linecap:round;stroke-linejoin:round;stroke-miterlimit:10;" x1="618.019" y1="321.81" x2="615.004" y2="418.463"/>
			</g>
		</g>
		<g>
			<path style="fill:#BBFFFF;" d="M652.42,145.361c0,7.738-6.273,14.011-14.011,14.011c-7.739,0-14.012-6.273-14.012-14.011
				c0-7.739,6.272-14.012,14.012-14.012C646.146,131.349,652.42,137.622,652.42,145.361z"/>
			<path style="fill:#BBFFFF;" d="M694.812,145.361c0,7.738-6.273,14.011-14.012,14.011s-14.011-6.273-14.011-14.011
				c0-7.739,6.272-14.012,14.011-14.012S694.812,137.622,694.812,145.361z"/>
			<path style="fill:#BBFFFF;" d="M660.979,131.349c0,7.738-6.274,14.012-14.012,14.012c-7.739,0-14.013-6.274-14.013-14.012
				c0-7.738,6.273-14.011,14.013-14.011C654.705,117.338,660.979,123.611,660.979,131.349z"/>
			<path style="fill:#BBFFFF;" d="M685.679,127.001c0,9.633-7.81,17.443-17.443,17.443c-9.633,0-17.443-7.81-17.443-17.443
				c0-9.634,7.81-17.443,17.443-17.443C677.869,109.558,685.679,117.367,685.679,127.001z"/>
			<rect x="638.409" y="131.349" style="fill:#BBFFFF;" width="42.391" height="28.024"/>
		</g>
		<g>
			<path style="fill:#BBFFFF;" d="M587.099,76.146c0,4.471-3.624,8.095-8.096,8.095c-4.471,0-8.095-3.624-8.095-8.095
				s3.624-8.095,8.095-8.095C583.475,68.05,587.099,71.675,587.099,76.146z"/>
			<path style="fill:#BBFFFF;" d="M616.556,76.146c0,4.471-3.624,8.095-8.095,8.095s-8.096-3.624-8.096-8.095
				s3.625-8.095,8.096-8.095S616.556,71.675,616.556,76.146z"/>
			<path style="fill:#BBFFFF;" d="M592.54,68.05c0,4.471-3.624,8.095-8.095,8.095s-8.096-3.624-8.096-8.095s3.625-8.095,8.096-8.095
				S592.54,63.58,592.54,68.05z"/>
			<path style="fill:#BBFFFF;" d="M609.922,68.05c0,4.471-3.624,8.095-8.095,8.095c-4.471,0-8.096-3.624-8.096-8.095
				s3.625-8.095,8.096-8.095C606.298,59.956,609.922,63.58,609.922,68.05z"/>
			<circle style="fill:#BBFFFF;" cx="593.732" cy="64.633" r="8.095"/>
			<rect x="579.003" y="68.05" style="fill:#BBFFFF;" width="29.458" height="16.19"/>
		</g>
		<g>
			<path style="fill:#BBFFFF;" d="M72.282,143.73c0,4.471-3.624,8.095-8.096,8.095c-4.471,0-8.095-3.624-8.095-8.095
				s3.624-8.095,8.095-8.095C68.658,135.635,72.282,139.26,72.282,143.73z"/>
			<path style="fill:#BBFFFF;" d="M101.739,143.73c0,4.471-3.624,8.095-8.095,8.095c-4.471,0-8.096-3.624-8.096-8.095
				s3.625-8.095,8.096-8.095C98.115,135.635,101.739,139.26,101.739,143.73z"/>
			<path style="fill:#BBFFFF;" d="M77.724,135.635c0,4.471-3.624,8.095-8.095,8.095c-4.471,0-8.096-3.624-8.096-8.095
				s3.625-8.095,8.096-8.095C74.1,127.54,77.724,131.165,77.724,135.635z"/>
			<path style="fill:#BBFFFF;" d="M95.105,135.635c0,4.471-3.624,8.095-8.095,8.095c-4.471,0-8.096-3.624-8.096-8.095
				s3.625-8.095,8.096-8.095C91.481,127.54,95.105,131.165,95.105,135.635z"/>
			<circle style="fill:#BBFFFF;" cx="78.916" cy="132.218" r="8.095"/>
			<rect x="64.186" y="135.635" style="fill:#BBFFFF;" width="29.458" height="16.19"/>
		</g>
		<g>
			<path style="fill:#FCA995;" d="M642.019,158.147c-0.294,14.922-12.629,26.777-27.549,26.482
				c-14.923-0.294-26.776-12.628-26.484-27.55c0.296-14.919,12.63-26.776,27.552-26.481
				C630.457,130.892,642.315,143.227,642.019,158.147z"/>
			<g>
				<path style="fill:#FFFEFF;" d="M615.224,153.39c0,4.228-3.427,7.654-7.653,7.654c-4.227,0-7.654-3.427-7.654-7.654
					c0-4.227,3.428-7.653,7.654-7.653C611.797,145.736,615.224,149.163,615.224,153.39z"/>
				<path style="fill:#FFFEFF;" d="M630.089,153.39c0,4.228-3.427,7.654-7.654,7.654c-4.228,0-7.654-3.427-7.654-7.654
					c0-4.227,3.427-7.653,7.654-7.653C626.662,145.736,630.089,149.163,630.089,153.39z"/>
				<polygon style="fill:#FFFEFF;" points="602.281,158.92 615.224,173.009 628.899,157.484 614.78,153.39 				"/>
			</g>
		</g>
		<path style="fill:none;stroke:#1F98D7;stroke-miterlimit:10;stroke-dasharray:6;" d="M666.789,37.032
			c25.8,73.101-133.874,72.526-135.787,133.336"/>
		<path style="fill:none;stroke:#1F98D7;stroke-miterlimit:10;stroke-dasharray:6;" d="M51.002,53.986
			c18.667-4.667,36,4.675,46,18.675c12.667,18,18,42.667,39.333,53.334c12,5.333,25.333,4,37.333-0.667"/>
	</g>
</g>
<g id="DESIGNED_BY_FREEPIK">
	<g>
		<g id="XMLID_57_">
			<g id="XMLID_76_">
				<path id="XMLID_84_" style="fill:#1C1C1B;" d="M385.103,465.465c-0.432,0.443-0.803,0.932-1.107,1.453l-0.465-0.24
					c-0.068-0.297-0.35-0.502-0.66-0.467c-0.33,0.039-0.566,0.34-0.529,0.67c0.039,0.332,0.34,0.568,0.67,0.529
					c0.066-0.008,0.127-0.025,0.184-0.053l0.451,0.234c-0.25,0.555-0.432,1.139-0.539,1.744l0.748,0.131
					c0.229-1.305,0.85-2.506,1.791-3.473L385.103,465.465z"/>
				<path id="XMLID_83_" style="fill:#1C1C1B;" d="M390.592,463.164c-0.172,0-0.342,0.006-0.51,0.016l-0.074-0.625
					c0.188-0.15,0.297-0.389,0.266-0.645c-0.045-0.393-0.402-0.674-0.795-0.629c-0.393,0.047-0.674,0.402-0.627,0.797
					c0.029,0.254,0.189,0.461,0.404,0.563l0.072,0.625c-0.713,0.115-1.402,0.332-2.059,0.645l0.326,0.686
					c0.936-0.447,1.941-0.674,2.996-0.674c0.496,0,0.992,0.053,1.475,0.158l0.16-0.742
					C391.691,463.223,391.143,463.164,390.592,463.164z"/>
				<path id="XMLID_82_" style="fill:#1C1C1B;" d="M397.193,465.711c0.332-0.041,0.566-0.342,0.525-0.672
					c-0.039-0.332-0.34-0.566-0.672-0.525c-0.309,0.037-0.535,0.303-0.529,0.607l-0.416,0.363c-0.418-0.43-0.891-0.813-1.408-1.139
					l-0.404,0.641c1.135,0.715,2.021,1.727,2.564,2.926l0.69-0.313c-0.25-0.555-0.566-1.072-0.941-1.545l0.402-0.352
					C397.065,465.715,397.129,465.719,397.193,465.711z"/>
				<path id="XMLID_81_" style="fill:#1C1C1B;" d="M390.045,473.371c-0.387,0.023-0.775,0.035-1.158,0.035
					c-0.879,0-1.732-0.061-2.478-0.18c-0.391-0.061-0.846-0.154-1.27-0.291c1.047,1.861,3.068,3.125,5.389,3.125
					c2.855,0,5.262-1.916,5.949-4.504c-0.682,0.449-1.506,0.826-2.459,1.123C392.838,473.047,391.463,473.287,390.045,473.371z"/>
				<path id="XMLID_77_" style="fill:#1C1C1B;" d="M390.592,464.68c-3.352,0-6.08,2.666-6.08,5.943c0,0.426,0.047,0.85,0.137,1.262
					c0.674,0.482,2.707,0.891,5.348,0.73c2.881-0.174,5.297-0.957,6.672-2.158c-0.004-0.195-0.02-0.391-0.045-0.582
					C396.244,466.914,393.65,464.68,390.592,464.68z M388.432,471.195c-1.02,0-1.85-0.83-1.85-1.85c0-1.022,0.83-1.852,1.85-1.852
					c1.02,0,1.85,0.83,1.85,1.852C390.281,470.365,389.451,471.195,388.432,471.195z M393.17,470.287
					c-0.75,0-1.361-0.611-1.361-1.361s0.611-1.359,1.361-1.359s1.359,0.609,1.359,1.359S393.92,470.287,393.17,470.287z"/>
			</g>
			<path id="XMLID_74_" style="fill:#1C1C1B;" d="M406.596,466.547c-0.295-0.115-0.807-0.309-1.383-0.238
				c-0.551,0.07-0.844,0.342-0.844,1.008v0.865h2.229v1.717h-2.229v5.455h-1.932v-5.455h-1.34v-1.717h1.34v-0.889
				c0-1.68,0.895-2.781,2.568-2.781c0.643,0,1.156,0.121,1.59,0.307V466.547z"/>
			<path id="XMLID_72_" style="fill:#1C1C1B;" d="M411.297,469.879c-0.176-0.029-0.357-0.047-0.525-0.047
				c-0.895,0-1.51,0.549-1.51,1.613v3.908h-1.932v-7.172h1.873v0.785c0.451-0.674,1.139-0.977,2.02-0.977
				c0.414,0,0.848,0.127,1.096,0.336L411.297,469.879z"/>
			<path id="XMLID_69_" style="fill:#1C1C1B;" d="M418.965,471.758c0,0.221-0.016,0.488-0.037,0.65h-5.084
				c0.207,1.037,0.932,1.488,1.842,1.488c0.623,0,1.295-0.252,1.815-0.69l1.133,1.244c-0.814,0.748-1.852,1.088-3.057,1.088
				c-2.199,0-3.725-1.496-3.725-3.752c0-2.258,1.48-3.797,3.627-3.797C417.543,467.99,418.957,469.522,418.965,471.758z
				 M413.852,471.092h3.174c-0.178-0.918-0.732-1.438-1.561-1.438C414.555,469.654,414.022,470.203,413.852,471.092z"/>
			<path id="XMLID_66_" style="fill:#1C1C1B;" d="M426.619,471.758c0,0.221-0.016,0.488-0.037,0.65h-5.086
				c0.207,1.037,0.934,1.488,1.844,1.488c0.621,0,1.295-0.252,1.813-0.69l1.133,1.244c-0.814,0.748-1.85,1.088-3.057,1.088
				c-2.199,0-3.723-1.496-3.723-3.752c0-2.258,1.48-3.797,3.627-3.797C425.197,467.99,426.611,469.522,426.619,471.758z
				 M421.504,471.092h3.176c-0.178-0.918-0.734-1.438-1.563-1.438C422.207,469.654,421.674,470.203,421.504,471.092z"/>
			<path id="XMLID_63_" style="fill:#1C1C1B;" d="M434.965,471.764c0,2.154-1.496,3.775-3.473,3.775
				c-0.961,0-1.643-0.377-2.109-0.932v3.707h-1.924v-10.133h1.887v0.793c0.467-0.586,1.154-0.984,2.139-0.984
				C433.469,467.99,434.965,469.611,434.965,471.764z M429.287,471.764c0,1.133,0.748,1.977,1.844,1.977
				c1.139,0,1.85-0.881,1.85-1.977c0-1.094-0.711-1.975-1.85-1.975C430.035,469.789,429.287,470.633,429.287,471.764z"/>
			<path id="XMLID_60_" style="fill:#1C1C1B;" d="M438.068,465.836c0,0.695-0.541,1.229-1.236,1.229
				c-0.697,0-1.229-0.533-1.229-1.229c0-0.695,0.531-1.244,1.229-1.244C437.527,464.592,438.068,465.141,438.068,465.836z
				 M437.809,475.353h-1.932v-7.172h1.932V475.353z"/>
			<path id="XMLID_58_" style="fill:#1C1C1B;" d="M441.031,470.736l2.703-2.555h2.367l-3.479,3.375l3.502,3.797h-2.377l-2.717-2.9
				v2.9H439.1v-10.658h1.932V470.736z"/>
		</g>
		<g>
			<path style="fill:#1C1C1B;" d="M309.412,475.289v-1.055c-0.527,0.719-1.391,1.23-2.387,1.23c-1.846,0-3.149-1.406-3.149-3.705
				c0-2.256,1.289-3.721,3.149-3.721c0.952,0,1.816,0.469,2.387,1.244v-3.764h1.099v9.77H309.412z M309.412,473.371v-3.209
				c-0.395-0.615-1.245-1.143-2.124-1.143c-1.42,0-2.27,1.172-2.27,2.74c0,1.566,0.85,2.725,2.27,2.725
				C308.167,474.484,309.017,473.986,309.412,473.371z"/>
			<path style="fill:#1C1C1B;" d="M311.932,471.744c0-2.051,1.465-3.705,3.486-3.705c2.139,0,3.398,1.67,3.398,3.793v0.279h-5.727
				c0.088,1.332,1.025,2.445,2.549,2.445c0.806,0,1.626-0.322,2.182-0.893l0.527,0.717c-0.703,0.703-1.655,1.084-2.812,1.084
				C313.44,475.465,311.932,473.957,311.932,471.744z M315.403,468.947c-1.509,0-2.256,1.273-2.314,2.357h4.644
				C317.718,470.25,317.015,468.947,315.403,468.947z"/>
			<path style="fill:#1C1C1B;" d="M319.607,474.352l0.571-0.791c0.469,0.543,1.362,1.012,2.329,1.012c1.085,0,1.67-0.514,1.67-1.217
				c0-1.713-4.38-0.658-4.38-3.281c0-1.098,0.952-2.035,2.636-2.035c1.202,0,2.051,0.453,2.623,1.025l-0.513,0.762
				c-0.424-0.514-1.201-0.895-2.109-0.895c-0.966,0-1.567,0.484-1.567,1.113c0,1.553,4.379,0.527,4.379,3.281
				c0,1.188-0.952,2.139-2.783,2.139C321.306,475.465,320.325,475.113,319.607,474.352z"/>
			<path style="fill:#1C1C1B;" d="M326.477,466.471c0-0.41,0.337-0.746,0.732-0.746c0.41,0,0.747,0.336,0.747,0.746
				c0,0.41-0.337,0.732-0.747,0.732C326.814,467.203,326.477,466.881,326.477,466.471z M326.667,475.289v-7.074h1.099v7.074H326.667
				z"/>
			<path style="fill:#1C1C1B;" d="M329.582,477.105l0.556-0.82c0.586,0.703,1.289,0.967,2.3,0.967c1.172,0,2.27-0.57,2.27-2.123
				v-1.012c-0.513,0.719-1.377,1.26-2.373,1.26c-1.846,0-3.149-1.377-3.149-3.662c0-2.27,1.289-3.676,3.149-3.676
				c0.952,0,1.802,0.469,2.373,1.244v-1.068h1.099v6.869c0,2.344-1.641,3.076-3.369,3.076
				C331.237,478.16,330.416,477.926,329.582,477.105z M334.708,473.254v-3.092c-0.381-0.615-1.23-1.143-2.109-1.143
				c-1.421,0-2.27,1.129-2.27,2.695c0,1.553,0.849,2.695,2.27,2.695C333.478,474.41,334.328,473.869,334.708,473.254z"/>
			<path style="fill:#1C1C1B;" d="M342.413,475.289v-4.629c0-1.244-0.63-1.641-1.582-1.641c-0.864,0-1.685,0.527-2.094,1.1v5.17
				h-1.099v-7.074h1.099v1.025c0.498-0.586,1.464-1.201,2.519-1.201c1.479,0,2.256,0.746,2.256,2.285v4.965H342.413z"/>
			<path style="fill:#1C1C1B;" d="M344.932,471.744c0-2.051,1.465-3.705,3.486-3.705c2.139,0,3.398,1.67,3.398,3.793v0.279h-5.727
				c0.088,1.332,1.025,2.445,2.548,2.445c0.806,0,1.626-0.322,2.183-0.893l0.527,0.717c-0.703,0.703-1.655,1.084-2.813,1.084
				C346.441,475.465,344.932,473.957,344.932,471.744z M348.404,468.947c-1.509,0-2.256,1.273-2.314,2.357h4.643
				C350.718,470.25,350.015,468.947,348.404,468.947z"/>
			<path style="fill:#1C1C1B;" d="M358.35,475.289v-1.055c-0.527,0.719-1.392,1.23-2.388,1.23c-1.845,0-3.149-1.406-3.149-3.705
				c0-2.256,1.289-3.721,3.149-3.721c0.952,0,1.817,0.469,2.388,1.244v-3.764h1.098v9.77H358.35z M358.35,473.371v-3.209
				c-0.396-0.615-1.245-1.143-2.124-1.143c-1.421,0-2.271,1.172-2.271,2.74c0,1.566,0.85,2.725,2.271,2.725
				C357.105,474.484,357.954,473.986,358.35,473.371z"/>
			<path style="fill:#1C1C1B;" d="M364.692,475.289v-9.77h1.099v3.764c0.571-0.775,1.421-1.244,2.388-1.244
				c1.845,0,3.149,1.465,3.149,3.721c0,2.299-1.304,3.705-3.149,3.705c-0.996,0-1.86-0.512-2.388-1.23v1.055H364.692z
				 M367.9,474.484c1.436,0,2.285-1.158,2.285-2.725c0-1.568-0.85-2.74-2.285-2.74c-0.864,0-1.728,0.527-2.109,1.143v3.209
				C366.171,473.986,367.036,474.484,367.9,474.484z"/>
			<path style="fill:#1C1C1B;" d="M372.528,477.063c0.161,0.072,0.425,0.117,0.601,0.117c0.483,0,0.806-0.162,1.055-0.748
				l0.469-1.068l-2.959-7.148h1.186l2.358,5.801l2.344-5.801h1.201l-3.545,8.51c-0.425,1.025-1.143,1.422-2.08,1.436
				c-0.234,0-0.601-0.043-0.806-0.104L372.528,477.063z"/>
		</g>
	</g>
</g>
</svg>
